<?xml version="1.0" encoding="UTF-8"?>
<svg width="24px" height="24px" viewBox="0 0 24 24" version="1.1" xmlns="http://www.w3.org/2000/svg" xmlns:xlink="http://www.w3.org/1999/xlink">
    <title>bell</title>
    <g id="bell" stroke="none" stroke-width="1" fill="none" fill-rule="evenodd">
        <path d="M12,19.5061833 C11.349,19.5061833 10.64775,19.2324333 10.5,18.7501833 L9,18.7501833 C9.29475,20.1961833 10.701,21.0001833 12.00225,21.0001833 C13.3035,21.0001833 14.688,20.2051833 15,18.7501833 L13.5,18.7501833 C13.344,19.2354333 12.651,19.5061833 12,19.5061833 M4.5,15.7503333 C4.5,15.4675833 4.66425,15.1773333 4.95,14.9928333 C6.7755,13.7988333 7.90875,10.6405833 7.90875,7.52583333 C7.90875,5.82108333 9.74475,4.50033333 12,4.50033333 C14.25525,4.50033333 16.08975,5.82108333 16.08975,7.52583333 C16.08975,10.6405833 17.2245,13.7988333 19.04925,14.9928333 C19.24025,15.1158333 19.3905,15.3683333 19.5,15.7503333 L4.5,15.7503333 Z M17.78475,7.71858333 C17.78475,5.63358333 16.16025,3.86733333 13.89675,3.21933333 C12,2.72583333 10.10325,3.21933333 10.10325,3.21933333 C7.842,3.86733333 6.21525,5.63358333 6.21525,7.71858333 C6.21525,10.4710833 5.3295,12.8148333 4.09125,13.6990833 C3.39675,14.1918333 3,15.0003333 3,15.7503333 C3,16.5003333 3.75,17.2503333 4.5,17.2503333 L9.77325,17.2503333 L14.27775,17.2503333 L19.491,17.2503333 C20.25,17.2503333 21,16.5003333 21,15.7503333 C21,15.0003333 20.60325,14.1918333 19.90875,13.6990833 C18.67275,12.8148333 17.78475,10.4710833 17.78475,7.71858333 Z" id="Notification" fill="#65676B"></path>
    </g>
</svg>