<?xml version="1.0" encoding="UTF-8"?>
<svg width="24px" height="24px" viewBox="0 0 24 24" version="1.1" xmlns="http://www.w3.org/2000/svg" xmlns:xlink="http://www.w3.org/1999/xlink">
    <title>dot-menu-red</title>
    <defs>
        <linearGradient x1="50%" y1="0%" x2="50%" y2="100%" id="linearGradient-1">
            <stop stop-color="#FF7474" offset="0%"></stop>
            <stop stop-color="#FF0000" offset="100%"></stop>
        </linearGradient>
    </defs>
    <g id="dot-menu-red" stroke="none" stroke-width="1" fill="none" fill-rule="evenodd">
        <path d="M4.5,18 C5.32842712,18 6,18.6715729 6,19.5 C6,20.3284271 5.32842712,21 4.5,21 C3.67157288,21 3,20.3284271 3,19.5 C3,18.6715729 3.67157288,18 4.5,18 Z M12,18 C12.8284271,18 13.5,18.6715729 13.5,19.5 C13.5,20.3284271 12.8284271,21 12,21 C11.1715729,21 10.5,20.3284271 10.5,19.5 C10.5,18.6715729 11.1715729,18 12,18 Z M19.5,18 C20.3284271,18 21,18.6715729 21,19.5 C21,20.3284271 20.3284271,21 19.5,21 C18.6715729,21 18,20.3284271 18,19.5 C18,18.6715729 18.6715729,18 19.5,18 Z M4.5,10.5 C5.32842712,10.5 6,11.1715729 6,12 C6,12.8284271 5.32842712,13.5 4.5,13.5 C3.67157288,13.5 3,12.8284271 3,12 C3,11.1715729 3.67157288,10.5 4.5,10.5 Z M12,10.5 C12.8284271,10.5 13.5,11.1715729 13.5,12 C13.5,12.8284271 12.8284271,13.5 12,13.5 C11.1715729,13.5 10.5,12.8284271 10.5,12 C10.5,11.1715729 11.1715729,10.5 12,10.5 Z M19.5,10.5 C20.3284271,10.5 21,11.1715729 21,12 C21,12.8284271 20.3284271,13.5 19.5,13.5 C18.6715729,13.5 18,12.8284271 18,12 C18,11.1715729 18.6715729,10.5 19.5,10.5 Z M4.5,3 C5.32842712,3 6,3.67157288 6,4.5 C6,5.32842712 5.32842712,6 4.5,6 C3.67157288,6 3,5.32842712 3,4.5 C3,3.67157288 3.67157288,3 4.5,3 Z M12,3 C12.8284271,3 13.5,3.67157288 13.5,4.5 C13.5,5.32842712 12.8284271,6 12,6 C11.1715729,6 10.5,5.32842712 10.5,4.5 C10.5,3.67157288 11.1715729,3 12,3 Z M19.5,3 C20.3284271,3 21,3.67157288 21,4.5 C21,5.32842712 20.3284271,6 19.5,6 C18.6715729,6 18,5.32842712 18,4.5 C18,3.67157288 18.6715729,3 19.5,3 Z" id="Combined-Shape" fill="url(#linearGradient-1)" fill-rule="nonzero"></path>
    </g>
</svg>