<?xml version="1.0" encoding="UTF-8"?>
<svg width="24px" height="24px" viewBox="0 0 24 24" version="1.1" xmlns="http://www.w3.org/2000/svg" xmlns:xlink="http://www.w3.org/1999/xlink">
    <title>fashion</title>
    <g id="fashion" stroke="none" stroke-width="1" fill="none" fill-rule="evenodd">
        <path d="M18.9663657,9.1493806 L14.1232407,9.1493806 L12.6269907,4.53688058 C12.5212634,4.21645495 12.2219086,4 11.8844907,4 C11.5470728,4 11.2477179,4.21645495 11.1419907,4.53688058 L9.62324067,9.1493806 L4.78011565,9.1493806 C4.44251695,9.15016273 4.14354677,9.36754027 4.03870809,9.6884489 C3.93386942,10.0093575 4.04684204,10.361314 4.31886565,10.5612556 L8.25636566,13.4131306 L6.74886566,18.0312556 C6.67148068,18.2691358 6.71258911,18.5296823 6.85945594,18.7321805 C7.00632278,18.9346787 7.24121513,19.0546787 7.49136566,19.0550056 C7.65189689,19.048068 7.80667146,18.9932112 7.93574066,18.8975056 L11.8732407,16.0456306 L15.8107407,18.8975056 C15.9436059,18.9933476 16.1025683,19.046335 16.2663657,19.0493806 C16.5165162,19.0490537 16.7514086,18.9290537 16.8982754,18.7265555 C17.0451422,18.5240573 17.0862507,18.2635108 17.0088657,18.0256306 L15.5126157,13.4075056 L19.4501157,10.5556306 C19.7206195,10.3518406 19.8291649,9.99706426 19.7189959,9.6768058 C19.608827,9.35654733 19.3049947,9.14362892 18.9663657,9.1493806 Z M14.8376157,12.5243806 L14.1794907,13.0081306 L14.4269907,13.7843806 L15.6026157,17.3900056 L12.5369907,15.1400056 L11.8732407,14.6562556 L11.2094907,15.1400056 L8.14386566,17.3900056 L9.31949067,13.7843806 L9.56699067,13.0081306 L8.90886567,12.5243806 L5.84324066,10.2743806 L10.4501157,10.2743806 L10.7032407,9.4981306 L11.8732407,5.89813059 L13.0432407,9.4981306 L13.2963657,10.2743806 L17.9032407,10.2743806 L14.8376157,12.5243806 Z" id="Style" fill="#65676B"></path>
    </g>
</svg>