<?xml version="1.0" encoding="UTF-8"?>
<svg width="24px" height="24px" viewBox="0 0 24 24" version="1.1" xmlns="http://www.w3.org/2000/svg" xmlns:xlink="http://www.w3.org/1999/xlink">
    <title>feedback</title>
    <g id="feedback" stroke="none" stroke-width="1" fill="none" fill-rule="evenodd">
        <path d="M17.5,5 C18.3284271,5 19,5.68602848 19,6.53228749 L19,6.53228749 L19,14.7044874 C19,15.5507464 18.3284271,16.2367749 17.5,16.2367749 L17.5,16.2367749 L8.915,16.2367749 C8.78261651,16.2386563 8.65581689,16.2915625 8.56,16.384896 L8.56,16.384896 L6,19 L6,6.53228749 C6,5.68602848 6.67157288,5 7.5,5 L7.5,5 Z M17.5,6.02152499 L7.5,6.02152499 C7.22385763,6.02152499 7,6.25020115 7,6.53228749 L7,6.53228749 L7,16.5381248 L7.855,15.6647209 C8.13603472,15.3772791 8.5173093,15.2156075 8.915,15.2152499 L8.915,15.2152499 L17.5,15.2152499 C17.7761424,15.2152499 18,14.9865738 18,14.7044874 L18,14.7044874 L18,6.53228749 C18,6.25020115 17.7761424,6.02152499 17.5,6.02152499 L17.5,6.02152499 Z M12.5,12 C12.7761424,12 13,12.2238576 13,12.5 C13,12.7761424 12.7761424,13 12.5,13 L9.5,13 C9.22385763,13 9,12.7761424 9,12.5 C9,12.2238576 9.22385763,12 9.5,12 L12.5,12 Z M15.5,10 C15.7761424,10 16,10.2238576 16,10.5 C16,10.7761424 15.7761424,11 15.5,11 L10.5,11 C10.2238576,11 10,10.7761424 10,10.5 C10,10.2238576 10.2238576,10 10.5,10 L15.5,10 Z" id="Style" fill="#65676B"></path>
    </g>
</svg>