<?xml version="1.0" encoding="UTF-8"?>
<svg width="24px" height="24px" viewBox="0 0 24 24" version="1.1" xmlns="http://www.w3.org/2000/svg" xmlns:xlink="http://www.w3.org/1999/xlink">
    <title>gaming</title>
    <g id="gaming" stroke="none" stroke-width="1" fill="none" fill-rule="evenodd">
        <path d="M18,6 C21.3137085,6 24,8.6862915 24,12 C24,15.3137085 21.3137085,18 18,18 L6,18 C2.6862915,18 0,15.3137085 0,12 C0,8.6862915 2.6862915,6 6,6 L18,6 Z M18.1111111,7 L5.88888889,7 C3.18883011,7 1,9.23857625 1,12 C1,14.6777442 3.05818369,16.8638486 5.64488403,16.9938809 L5.88888889,17 L18.1111111,17 C20.8111699,17 23,14.7614237 23,12 C23,9.32225576 20.9418163,7.13615141 18.355116,7.00611913 L18.1111111,7 Z M17.75,13 C18.4403906,13 19,13.5596094 19,14.25 C19,14.9403906 18.4403125,15.5 17.75,15.5 C17.0596094,15.5 16.5,14.9403906 16.5,14.25 C16.5,13.5596094 17.0596094,13 17.75,13 Z M6.85714286,8.95 L6.85714286,10.6642857 C6.85714286,10.9009643 7.04903571,11.0928571 7.28571429,11.0928571 L9,11.0928571 L9,12.8071429 L7.28571429,12.8071429 C7.04903571,12.8071429 6.85714286,12.9990357 6.85714286,13.2357143 L6.85714286,14.95 L5.14285714,14.95 L5.14285714,13.2357143 C5.14285714,12.9990357 4.95096429,12.8071429 4.71428571,12.8071429 L3,12.8071429 L3,11.0928571 L4.71428571,11.0928571 C4.95096429,11.0928571 5.14285714,10.9009643 5.14285714,10.6642857 L5.14285714,8.95 L6.85714286,8.95 Z M15.25,10.75 C15.9403906,10.75 16.5,11.3096094 16.5,12 C16.5,12.6903906 15.9403125,13.25 15.25,13.25 C14.5596094,13.25 14,12.6903906 14,12 C14,11.3096094 14.5596094,10.75 15.25,10.75 Z M20.25,10.75 C20.9403906,10.75 21.5,11.3096094 21.5,12 C21.5,12.6903906 20.9403125,13.25 20.25,13.25 C19.5596094,13.25 19,12.6903906 19,12 C19,11.3096094 19.5596094,10.75 20.25,10.75 Z M17.75,8.5 C18.4403906,8.5 19,9.05960938 19,9.75 C19,10.4403906 18.4403125,11 17.75,11 C17.0596094,11 16.5,10.4403906 16.5,9.75 C16.5,9.05960938 17.0596094,8.5 17.75,8.5 Z" id="Combined-Shape" fill="#65676B"></path>
    </g>
</svg>