<?xml version="1.0" encoding="UTF-8"?>
<svg width="24px" height="24px" viewBox="0 0 24 24" version="1.1" xmlns="http://www.w3.org/2000/svg" xmlns:xlink="http://www.w3.org/1999/xlink">
    <title>help</title>
    <g id="help" stroke="none" stroke-width="1" fill="none" fill-rule="evenodd">
        <path d="M12,3 C14.3869484,3 16.6761336,3.94821156 18.363961,5.63603897 C20.0517884,7.32386638 21,9.61305159 21,12 C21,16.9705627 16.9705627,21 12,21 C7.02943725,21 3,16.9705627 3,12 C3,7.02943725 7.02943725,3 12,3 Z M12,4.28571429 C7.73951764,4.28571429 4.28571429,7.73951764 4.28571429,12 C4.28571429,16.2604824 7.73951764,19.7142857 12,19.7142857 C14.0459558,19.7142857 16.0081145,18.9015329 17.4548237,17.4548237 C18.9015329,16.0081145 19.7142857,14.0459558 19.7142857,12 C19.7142857,7.73951764 16.2604824,4.28571429 12,4.28571429 Z M12,16 C12.8284271,16 13.5,16.6715729 13.5,17.5 C13.5,18.3284271 12.8284271,19 12,19 C11.1715729,19 10.5,18.3284271 10.5,17.5 C10.5,16.6715729 11.1715729,16 12,16 Z M13.2,6 C14.1941125,6 15,6.82655123 15,7.84615385 L15,7.84615385 L15,8.56615385 C14.9995799,9.05561932 14.809662,9.52488035 14.472,9.87076923 L14.472,9.87076923 L12.774,11.6123077 C12.6616881,11.7284424 12.5990779,11.8856597 12.6,12.0492308 L12.6,12.0492308 L12.6,14 L11.4,14 L11.4,12.0492308 C11.4004201,11.5597653 11.590338,11.0905043 11.928,10.7446154 L11.928,10.7446154 L13.626,9.00307692 C13.7383119,8.88694226 13.8009221,8.72972491 13.8,8.56615385 L13.8,8.56615385 L13.8,7.84615385 C13.8,7.50628631 13.5313708,7.23076923 13.2,7.23076923 L13.2,7.23076923 L10.8,7.23076923 C10.4686292,7.23076923 10.2,7.50628631 10.2,7.84615385 L10.2,7.84615385 L10.2,9.07692308 L9,9.07692308 L9,7.84615385 C9,6.82655123 9.80588745,6 10.8,6 L10.8,6 Z" id="Style" fill="#65676B"></path>
    </g>
</svg>