<?xml version="1.0" encoding="UTF-8"?>
<svg width="24px" height="24px" viewBox="0 0 24 24" version="1.1" xmlns="http://www.w3.org/2000/svg" xmlns:xlink="http://www.w3.org/1999/xlink">
    <title>history</title>
    <g id="history" stroke="none" stroke-width="1" fill="none" fill-rule="evenodd">
        <path d="M13.4935285,1.3152618 L13.7078972,3.26911281 C17.9503166,4.09865606 21.2810438,7.68654802 21.596976,12.2045895 C21.9745253,17.6037958 17.903668,22.2867814 12.5044617,22.6643307 C7.10525551,23.0418799 2.42226989,18.9710226 2.04472061,13.5718164 C2.01390026,13.1310649 2.34621514,12.7487803 2.78696667,12.71796 C3.2277182,12.6871396 3.61000274,13.0194545 3.64082309,13.460206 C3.95673167,17.9779092 7.87514821,21.3841368 12.3928514,21.0682282 C16.9105546,20.7523196 20.3167821,16.8339031 20.0008735,12.3161999 C19.7488769,8.71248031 17.2045798,5.8160003 13.8923412,4.95186478 L13.8923412,4.95186478 L14.0927728,6.78251946 L7.82886956,4.70261168 L13.4935285,1.3152618 Z M12.5,9.1877961 C12.9418278,9.1877961 13.3,9.5459683 13.3,9.9877961 L13.3000265,12.2309289 C13.7206453,12.4966454 14,12.9656993 14,13.5 C14,14.3284271 13.3284271,15 12.5,15 C12.302347,15 12.1136229,14.9617712 11.9408182,14.8923041 L8.56173141,16.8428203 C8.17909732,17.0637342 7.68982499,16.9326341 7.46891109,16.55 C7.24799719,16.1673659 7.37909732,15.6780936 7.76173141,15.4571797 L11.0035978,13.5837961 L11,13.5 C11,12.9656993 11.2793547,12.4966454 11.6999735,12.2309289 L11.7,9.9877961 C11.7,9.5459683 12.0581722,9.1877961 12.5,9.1877961 Z" id="Combined-Shape" fill="#65676B"></path>
    </g>
</svg>