<?xml version="1.0" encoding="UTF-8"?>
<svg width="24px" height="24px" viewBox="0 0 24 24" version="1.1" xmlns="http://www.w3.org/2000/svg" xmlns:xlink="http://www.w3.org/1999/xlink">
    <title>home</title>
    <g id="home" stroke="none" stroke-width="1" fill="none" fill-rule="evenodd">
        <path d="M13.6314157,2.63506866 C12.7168891,1.78831045 11.2831109,1.78831045 10.3685843,2.63506866 L1.22671194,11.5486978 C0.932262743,11.8357955 0.926303213,12.3072325 1.21340096,12.6016816 C1.21771286,12.606104 1.22207962,12.6104725 1.22650023,12.6147861 C1.53039231,12.9113265 2.01534883,12.9113265 2.31924092,12.6147861 L3.53510732,11.4283336 L3.53510732,11.4283336 L3.53510732,20.7472421 C3.53510732,21.9914059 4.56870592,23 5.84371442,23 L18.1562856,23 C19.4312941,23 20.4648927,21.9914059 20.4648927,20.7472421 L20.4648927,11.4283336 L21.6807591,12.6147861 C21.9846512,12.9113265 22.4696077,12.9113265 22.7734998,12.6147861 C23.0678349,12.3275715 23.0736072,11.8561322 22.7863925,11.561797 C22.7820789,11.5573764 22.7777104,11.5530097 22.7732881,11.5486978 L13.6314157,2.63506866 L13.6314157,2.63506866 Z M10.4609286,21.4981614 L10.4609286,17.2417263 C10.4609286,16.6894416 10.9086439,16.2417263 11.4609286,16.2417263 L12.5390714,16.2417263 C13.0913561,16.2417263 13.5390714,16.6894416 13.5390714,17.2417263 L13.5390714,21.4981614 L13.5390714,21.4981614 L10.4609286,21.4981614 Z M18.9258213,20.7472421 C18.9258213,21.1619634 18.5812884,21.4981614 18.1562856,21.4981614 L15.0781428,21.4981614 L15.0781428,16.7398877 C15.0781428,15.6353182 14.1827123,14.7398877 13.0781428,14.7398877 L10.9218572,14.7398877 C9.81728771,14.7398877 8.92185721,15.6353182 8.92185721,16.7398877 L8.92185721,21.4981614 L8.92185721,21.4981614 L5.84371442,21.4981614 C5.41871159,21.4981614 5.07417872,21.1619634 5.07417872,20.7472421 L5.07417872,9.92649504 L11.4536297,3.69386487 C11.5981228,3.55170635 11.7948129,3.4717442 12,3.4717442 C12.2051871,3.4717442 12.4018772,3.55170635 12.5463703,3.69386487 L18.9258213,9.92649504 L18.9258213,20.7472421 Z" id="Style" fill="#65676B"></path>
    </g>
</svg>