<?xml version="1.0" encoding="UTF-8"?>
<svg width="24px" height="24px" viewBox="0 0 24 24" version="1.1" xmlns="http://www.w3.org/2000/svg" xmlns:xlink="http://www.w3.org/1999/xlink">
    <title>learning</title>
    <g id="learning" stroke="none" stroke-width="1" fill="none" fill-rule="evenodd">
        <path d="M17.3333333,5 C17.7015232,5 18,5.31340068 18,5.7 L18,18.3 C18,18.6865993 17.7015232,19 17.3333333,19 L8.33333333,19 C7.04466892,19 6,17.9030976 6,16.55 L6,7.45 C6,6.09690236 7.04466892,5 8.33333333,5 L17.3333333,5 Z M17,15.047 L8.33333333,15.0479287 C7.78104858,15.0479287 7.01102823,15.4956439 7.01102823,16.0479287 C7.00672716,16.0590199 7.00271157,16.0703236 6.99895747,16.0818164 L7,16.7906165 C7,17.4078759 7.57730036,18 8.16903402,18 L17,18 L17,15.047 Z M17,6 L8.23245118,6 C7.64071752,6 7,6.64682058 7,7.26408001 L7.00017173,14.41811 C7.33084472,14.1875021 7.7240412,14.0403426 8.14923661,14.0071559 L8.33333333,14 L17,14 L17,6 Z M11.288892,8.03208617 L13.913892,9.83179182 C14.0287027,9.91050621 14.0287027,10.0894938 13.913892,10.1682082 L11.288892,11.9679138 C11.1641086,12.0534656 11,11.9579129 11,11.7997056 L11,8.20029435 C11,8.04208707 11.1641086,7.94653438 11.288892,8.03208617 Z" id="Combined-Shape" fill="#65676B"></path>
    </g>
</svg>