<?xml version="1.0" encoding="UTF-8"?>
<svg width="24px" height="24px" viewBox="0 0 24 24" version="1.1" xmlns="http://www.w3.org/2000/svg" xmlns:xlink="http://www.w3.org/1999/xlink">
    <title>library</title>
    <defs>
        <path d="M20,2 C20.5522847,2 21,2.44771525 21,3 L21,21 C21,21.5522847 20.5522847,22 20,22 L6.5,22 C4.56700338,22 3,20.4329966 3,18.5 L3,5.5 C3,3.56700338 4.56700338,2 6.5,2 L20,2 Z M19.5,16.571 L6.5,16.571893 C5.67157288,16.571893 4.51654235,17.2434659 4.51654235,18.071893 C4.5103255,18.0879244 4.50450628,18.1042518 4.49905249,18.1208438 L4.5,18.7867067 C4.5,19.6611576 5.36595053,20.5 6.25355102,20.5 L19.5,20.5 L19.5,20.5 L19.5,16.571 Z M19.5,3.5 L6.34867677,3.5 C5.46107628,3.5 4.5,4.41632915 4.5,5.29078001 L4.50006832,15.627297 C5.06697213,15.2318888 5.7564058,15 6.5,15 L6.5,15 L19.5,15 L19.5,3.5 Z" id="path-1"></path>
    </defs>
    <g id="library" stroke="none" stroke-width="1" fill="none" fill-rule="evenodd">
        <mask id="mask-2" fill="white">
            <use xlink:href="#path-1"></use>
        </mask>
        <use id="Combined-Shape" fill="#65676B" xlink:href="#path-1"></use>
    </g>
</svg>