<?xml version="1.0" encoding="UTF-8"?>
<svg width="24px" height="24px" viewBox="0 0 24 24" version="1.1" xmlns="http://www.w3.org/2000/svg" xmlns:xlink="http://www.w3.org/1999/xlink">
    <title>liked-videos</title>
    <g id="liked-videos" stroke="none" stroke-width="1" fill="none" fill-rule="evenodd">
        <path d="M16.8125,9.06250002 L15.125,9.06250002 L15.125,5.68750001 C15.125,4.75551949 14.3694805,4 13.4375,4 L13.2125,4 C12.4370032,4.00059943 11.7617441,4.52966847 11.575625,5.2825 L10.450625,8.37625001 C10.3063558,8.77972707 9.92837957,9.05258564 9.5,9.06250002 L5,9.06250002 L5,19.1875 L16.8125,19.1875 C18.3658009,19.1875 19.625,17.9283009 19.625,16.375 L19.625,11.875 C19.625,10.3216992 18.3658009,9.06250002 16.8125,9.06250002 Z M8.37500001,18.0625 L6.125,18.0625 L6.125,10.1875 L8.37500001,10.1875 L8.37500001,18.0625 Z M18.5,16.375 C18.5,17.3069806 17.7444806,18.0625 16.8125,18.0625 L9.50000001,18.0625 L9.50000001,10.1875 C10.4123033,10.1875528 11.2257299,9.61297167 11.530625,8.75312501 L12.655625,5.63125001 L12.655625,5.56375 C12.7145492,5.30210168 12.9500038,5.11844708 13.218125,5.125 L13.4375,5.125 C13.7481602,5.125 14,5.37683983 14,5.68750001 L14,10.1875 L16.8125,10.1875 C17.7444806,10.1875 18.5,10.9430195 18.5,11.875 L18.5,16.375 Z" id="Style" fill="#65676B"></path>
    </g>
</svg>