<?xml version="1.0" encoding="UTF-8"?>
<svg width="24px" height="24px" viewBox="0 0 24 24" version="1.1" xmlns="http://www.w3.org/2000/svg" xmlns:xlink="http://www.w3.org/1999/xlink">
    <title>live</title>
    <g id="live" stroke="none" stroke-width="1" fill="none" fill-rule="evenodd">
        <path d="M19.875,6.48749998 L19.875,17.5125 L15.375,14.7 L15.375,15.375 C15.375,16.3069805 14.6194805,17.0625 13.6875,17.0625 L13.6875,17.0625 L5.81249998,17.0625 C4.88051946,17.0625 4.12499998,16.3069805 4.12499998,15.375 L4.12499998,15.375 L4.12499998,8.62499999 C4.12499998,7.69301947 4.88051946,6.93749998 5.81249998,6.93749998 L5.81249998,6.93749998 L13.6875,6.93749998 C14.6194805,6.93749998 15.375,7.69301947 15.375,8.62499999 L15.375,8.62499999 L15.375,9.29999999 L19.875,6.48749998 Z M13.6875,8.06249999 L5.81249998,8.06249999 C5.50183981,8.06249999 5.24999998,8.31433982 5.24999998,8.62499999 L5.24999998,8.62499999 L5.24999998,15.375 C5.24999998,15.6856602 5.50183981,15.9375 5.81249998,15.9375 L5.81249998,15.9375 L13.6875,15.9375 C13.9981602,15.9375 14.25,15.6856602 14.25,15.375 L14.25,15.375 L14.25,8.62499999 C14.25,8.31433982 13.9981602,8.06249999 13.6875,8.06249999 L13.6875,8.06249999 Z M18.75,8.51249999 L15.375,10.621875 L15.375,13.378125 L18.75,15.4875 L18.75,8.51249999 Z M11.625,10.4875 C12.4534271,10.4875 13.125,11.1590729 13.125,11.9875 C13.125,12.8159271 12.4534271,13.4875 11.625,13.4875 C10.7965729,13.4875 10.125,12.8159271 10.125,11.9875 C10.125,11.1590729 10.7965729,10.4875 11.625,10.4875 Z" id="Style" fill="#65676B"></path>
    </g>
</svg>