<?xml version="1.0" encoding="UTF-8"?>
<svg width="182px" height="48px" viewBox="0 0 182 48" version="1.1" xmlns="http://www.w3.org/2000/svg" xmlns:xlink="http://www.w3.org/1999/xlink">
    <title>logo-long</title>
    <defs>
        <linearGradient x1="50%" y1="0%" x2="50%" y2="100%" id="linearGradient-1">
            <stop stop-color="#FF7474" offset="0%"></stop>
            <stop stop-color="#FF0000" offset="100%"></stop>
        </linearGradient>
        <path d="M1.35314906,1.83743088 L1.35314906,19.2197861 L14.3678629,10.5 L1.35314906,1.83743088 Z M1.54075759,0.168452396 L15.5407576,9.61690704 C16.1530808,10.0301576 16.1530808,10.9698424 15.5407576,11.383093 L1.54075759,20.8315476 C0.875245955,21.2806945 0,20.7790429 0,19.9484546 L0,1.05154536 C0,0.220957124 0.875245955,-0.280694497 1.54075759,0.168452396 Z" id="path-2"></path>
    </defs>
    <g id="logo-long" stroke="none" stroke-width="1" fill="none" fill-rule="evenodd">
        <path d="M60.435667,34.793842 L60.435667,28.1378849 L67.7348628,14.1191432 L61.9075213,14.1191432 L57.8824503,23.4551539 L53.8273415,14.1191432 L48,14.1191432 L55.2991958,28.1378849 L55.2991958,34.793842 L60.435667,34.793842 Z M76.0353201,35 C78.5184484,35 80.5910596,34.2244534 82.2531536,32.6733601 C83.9152476,31.1222668 84.7462945,29.0803213 84.7462945,26.5475234 C84.7462945,24.0147256 83.9102412,21.9875056 82.2381347,20.4658635 C80.5660281,18.9442213 78.4884106,18.1834003 76.0052822,18.1834003 C73.5221539,18.1834003 71.4395301,18.9442213 69.7574109,20.4658635 C68.0752917,21.9875056 67.2342321,24.0147256 67.2342321,26.5475234 C67.2342321,29.0803213 68.0752917,31.1222668 69.7574109,32.6733601 C71.4595553,34.2244534 73.5521917,35 76.0353201,35 Z M76.0353201,30.7001339 C75.0741091,30.7001339 74.2380558,30.3467202 73.5271602,29.6398929 C72.8162646,28.9330656 72.4608168,27.9120928 72.4608168,26.5769746 C72.4608168,25.2418563 72.806252,24.2257921 73.4971224,23.5287818 C74.1879927,22.8317715 75.0140334,22.4832664 75.9752444,22.4832664 C76.9364554,22.4832664 77.7675024,22.8317715 78.4683854,23.5287818 C79.1692684,24.2257921 79.5197099,25.2418563 79.5197099,26.5769746 C79.5197099,27.9120928 79.179281,28.9330656 78.4984232,29.6398929 C77.8175654,30.3467202 76.9965311,30.7001339 76.0353201,30.7001339 Z M92.3558814,34.9705489 C94.6788079,34.9705489 96.3709398,34.1066488 97.4322769,32.3788487 L97.4322769,32.3788487 L97.4322769,34.793842 L102.568748,34.793842 L102.568748,18.3601071 L97.4322769,18.3601071 L97.4322769,27.2838019 C97.4322769,28.3440428 97.1469174,29.1637662 96.5761984,29.7429719 C96.0054793,30.3221776 95.2194891,30.6117805 94.2182277,30.6117805 C93.2169663,30.6117805 92.430976,30.3221776 91.860257,29.7429719 C91.289538,29.1637662 91.0041785,28.3440428 91.0041785,27.2838019 L91.0041785,27.2838019 L91.0041785,18.3601071 L85.8977452,18.3601071 L85.8977452,27.961178 C85.8977452,30.1209282 86.4934957,31.8290942 87.6849968,33.085676 C88.876498,34.3422579 90.4334595,34.9705489 92.3558814,34.9705489 Z M114.503784,34.793842 L114.503784,17.9477912 L120.27105,17.9477912 L120.27105,14.1191432 L103.630085,14.1191432 L103.630085,17.9477912 L109.367313,17.9477912 L109.367313,34.793842 L114.503784,34.793842 Z M127.640334,34.9705489 C129.963261,34.9705489 131.655393,34.1066488 132.71673,32.3788487 L132.71673,32.3788487 L132.71673,34.793842 L137.853201,34.793842 L137.853201,18.3601071 L132.71673,18.3601071 L132.71673,27.2838019 C132.71673,28.3440428 132.43137,29.1637662 131.860651,29.7429719 C131.289932,30.3221776 130.503942,30.6117805 129.502681,30.6117805 C128.501419,30.6117805 127.715429,30.3221776 127.14471,29.7429719 C126.573991,29.1637662 126.288631,28.3440428 126.288631,27.2838019 L126.288631,27.2838019 L126.288631,18.3601071 L121.182198,18.3601071 L121.182198,27.961178 C121.182198,30.1209282 121.777949,31.8290942 122.96945,33.085676 C124.160951,34.3422579 125.717912,34.9705489 127.640334,34.9705489 Z M150.44907,35 C152.551719,35 154.343977,34.2146363 155.825844,32.643909 C157.307711,31.0731816 158.048644,29.0606872 158.048644,26.6064257 C158.048644,24.1521642 157.307711,22.1347613 155.825844,20.5542169 C154.343977,18.9736725 152.5367,18.1834003 150.404013,18.1834003 C148.271326,18.1834003 146.634264,18.9589469 145.492826,20.5100402 L145.492826,20.5100402 L145.492826,13 L140.356354,13 L140.356354,34.793842 L145.492826,34.793842 L145.492826,32.4082999 C146.694339,34.1361 148.346421,35 150.44907,35 Z M149.157442,30.6412316 C148.196231,30.6412316 147.345159,30.2878179 146.604226,29.5809906 C145.863292,28.8741633 145.492826,27.8728246 145.492826,26.5769746 C145.492826,25.2811245 145.863292,24.2846943 146.604226,23.5876841 C147.345159,22.8906738 148.196231,22.5421687 149.157442,22.5421687 C150.118653,22.5421687 150.969726,22.8955823 151.710659,23.6024096 C152.451593,24.3092369 152.822059,25.3105756 152.822059,26.6064257 C152.822059,27.9022758 152.451593,28.9036145 151.710659,29.6104418 C150.969726,30.297635 150.118653,30.6412316 149.157442,30.6412316 Z M166.439215,35 C168.421712,35 170.133869,34.4944221 171.575686,33.4832664 C173.017502,32.4721107 173.978713,31.1419009 174.459319,29.4926372 L174.459319,29.4926372 L168.902318,29.4926372 C168.662015,29.7871486 168.466769,29.9982151 168.31658,30.1258367 C168.166391,30.2534583 167.931094,30.3810799 167.610691,30.5087015 C167.290287,30.6363231 166.804675,30.7001339 166.153855,30.7001339 C165.503035,30.7001339 164.897272,30.4694333 164.336566,30.0080321 C163.775859,29.546631 163.445443,28.9526997 163.345317,28.2262383 L163.345317,28.2262383 L174.879849,28.2262383 C174.95995,27.735386 175,27.2052655 175,26.6358768 C175,23.9852744 174.188978,21.9138777 172.566935,20.4216867 C170.944891,18.9294958 168.902318,18.1834003 166.439215,18.1834003 C163.976112,18.1834003 161.968582,18.9393128 160.416627,20.4511379 C158.864672,21.962963 158.088694,23.9950915 158.088694,26.5475234 C158.088694,29.0999554 158.869678,31.1468095 160.431646,32.6880857 C161.993614,34.2293619 163.996137,35 166.439215,35 Z M169.653264,25.0749665 L163.375355,25.0749665 C163.515531,24.3092369 163.865973,23.6858545 164.426679,23.2048193 C164.987386,22.723784 165.678256,22.4832664 166.49929,22.4832664 C167.320325,22.4832664 168.03122,22.723784 168.631977,23.2048193 C169.232734,23.6858545 169.573163,24.3092369 169.653264,25.0749665 L169.653264,25.0749665 Z" id="YouTube" fill="#333333" fill-rule="nonzero"></path>
        <g id="Group-Copy" transform="translate(8.000000, 6.000000)">
            <circle id="Oval" fill="url(#linearGradient-1)" cx="18" cy="18" r="18"></circle>
            <g id="play" transform="translate(12.000000, 8.000000)">
                <mask id="mask-3" fill="white">
                    <use xlink:href="#path-2"></use>
                </mask>
                <use id="Shape" fill="#FFFFFF" fill-rule="nonzero" xlink:href="#path-2"></use>
            </g>
        </g>
    </g>
</svg>