<?xml version="1.0" encoding="UTF-8"?>
<svg width="24px" height="24px" viewBox="0 0 24 24" version="1.1" xmlns="http://www.w3.org/2000/svg" xmlns:xlink="http://www.w3.org/1999/xlink">
    <title>menu-red</title>
    <defs>
        <linearGradient x1="50%" y1="0%" x2="50%" y2="100%" id="linearGradient-1">
            <stop stop-color="#FF7474" offset="0%"></stop>
            <stop stop-color="#FF0000" offset="100%"></stop>
        </linearGradient>
    </defs>
    <g id="menu-red" stroke="none" stroke-width="1" fill="none" fill-rule="evenodd">
        <path d="M20.95,17 C21.3918278,17 21.75,17.3581722 21.75,17.8 C21.75,18.2418278 21.3918278,18.6 20.95,18.6 L3.04999997,18.6 C2.60817217,18.6 2.24999997,18.2418278 2.24999997,17.8 C2.24999997,17.3581722 2.60817217,17 3.04999997,17 L20.95,17 Z M17.95,11 C18.3918278,11 18.75,11.3581722 18.75,11.8 C18.75,12.2418278 18.3918278,12.6 17.95,12.6 L3.04999997,12.6 C2.60817217,12.6 2.24999997,12.2418278 2.24999997,11.8 C2.24999997,11.3581722 2.60817217,11 3.04999997,11 L17.95,11 Z M20.95,4.99999998 C21.3918278,4.99999998 21.75,5.35817218 21.75,5.79999998 C21.75,6.24182778 21.3918278,6.59999998 20.95,6.59999998 L3.04999997,6.59999998 C2.60817217,6.59999998 2.24999997,6.24182778 2.24999997,5.79999998 C2.24999997,5.35817218 2.60817217,4.99999998 3.04999997,4.99999998 L20.95,4.99999998 Z" id="Combined-Shape" fill="url(#linearGradient-1)" fill-rule="nonzero"></path>
    </g>
</svg>