<?xml version="1.0" encoding="UTF-8"?>
<svg width="24px" height="24px" viewBox="0 0 24 24" version="1.1" xmlns="http://www.w3.org/2000/svg" xmlns:xlink="http://www.w3.org/1999/xlink">
    <title>movies</title>
    <defs>
        <path d="M17.6872727,4 C18.9645567,4 20,5.03544327 20,6.31272727 L20,17.6872727 C20,18.9645567 18.9645567,20 17.6872727,20 L6.31272727,20 C5.03544327,20 4,18.9645567 4,17.6872727 L4,6.31272727 C4,5.03544327 5.03544327,4 6.31272727,4 L17.6872727,4 Z M9,17 L5,17 L5,17.25 C5,19 6.24312533,19 6.75,19 L9,19 L9,17 Z M14,5 L10,5 L10,19 L14,19 L14,5 Z M19,17 L15,17 L15,19 L17.25,19 C19,19 19,17.7568747 19,17.25 L19,17 Z M19,13 L15,13 L15,16 L19,16 L19,13 Z M9,13 L5,13 L5,16 L9,16 L9,13 Z M19,9 L15,9 L15,12 L19,12 L19,9 Z M9,9 L5,9 L5,12 L9,12 L9,9 Z M17.3739537,5.00071127 L15,5 L15,8 L19,8 L19,6.75 C19,5.12962963 17.9342204,5.00960219 17.3739537,5.00071127 Z M9,5 L6.75,5 C5.12962963,5 5.00960219,6.0657796 5.00071127,6.62604633 L5,8 L9,8 L9,5 Z" id="path-1"></path>
    </defs>
    <g id="movies" stroke="none" stroke-width="1" fill="none" fill-rule="evenodd">
        <mask id="mask-2" fill="white">
            <use xlink:href="#path-1"></use>
        </mask>
        <use id="Combined-Shape" fill="#65676B" xlink:href="#path-1"></use>
    </g>
</svg>