<?xml version="1.0" encoding="UTF-8"?>
<svg width="24px" height="24px" viewBox="0 0 24 24" version="1.1" xmlns="http://www.w3.org/2000/svg" xmlns:xlink="http://www.w3.org/1999/xlink">
    <title>music</title>
    <g id="music" stroke="none" stroke-width="1" fill="none" fill-rule="evenodd">
        <path d="M20,5.32600375 C20,4.86950312 19.742,4.45232152 19.3333333,4.24772926 L19.1186667,4.14043496 C18.8273333,3.99515446 18.4933333,3.96116682 18.1786667,4.04513628 L9.014,6.48758127 C8.78666667,6.54822588 8.57933333,6.66818225 8.41266667,6.83545475 L8.33333333,6.91475924 C8.12,7.12934786 8.00066667,7.41990884 8.002,7.72179904 L8.03,15.0551318 C7.63,14.8152191 7.16733333,14.6686058 6.66666667,14.6686058 C5.86666667,14.6686058 5.15733333,15.0278084 4.66866667,15.5856056 C4.25733333,16.0547683 4,16.6618808 4,17.3343029 C4,18.006725 4.25733333,18.6138375 4.66866667,19.0830002 C5.15733333,19.6407973 5.86666667,20 6.66666667,20 C8.13933333,20 9.33333333,18.8064341 9.33333333,17.3343029 L9.33333333,8.66743957 C9.33333333,8.22092361 9.62935698,7.82851538 10.0587046,7.70588924 L17.3920379,5.61141293 C17.9230875,5.45973964 18.4765437,5.7672849 18.628217,6.29833448 C18.6537257,6.38764746 18.6666667,6.4800789 18.6666667,6.57296326 L18.6666667,12.3727741 L18.6666667,12.3727741 C18.2733333,12.1435241 17.8213333,12.0029086 17.3333333,12.0029086 C15.8606667,12.0029086 14.6666667,13.1964745 14.6666667,14.6686058 C14.6666667,16.140737 15.8606667,17.3343029 17.3333333,17.3343029 C18.806,17.3343029 20,16.140737 20,14.6686058 C20,14.6372838 19.992,14.6086276 19.9906667,14.5773056 L20,14.5773056 L20,5.32600375 Z" id="Music" fill="#65676B"></path>
    </g>
</svg>