<?xml version="1.0" encoding="UTF-8"?>
<svg width="24px" height="24px" viewBox="0 0 24 24" version="1.1" xmlns="http://www.w3.org/2000/svg" xmlns:xlink="http://www.w3.org/1999/xlink">
    <title>news</title>
    <g id="news" stroke="none" stroke-width="1" fill="none" fill-rule="evenodd">
        <path d="M14.3859455,4 L13.0978205,5.29375 C12.7812624,5.60991406 12.6032144,6.03884797 12.6028205,6.48625001 C12.6037585,6.90178687 12.7579822,7.30236788 13.0359455,7.61125001 L10.0715705,10.57 L9.29532048,9.79375002 C8.636481,9.13572992 7.56915996,9.13572992 6.91032047,9.79375002 L5.76680225,10.9372682 C5.37627796,11.3277925 5.37627796,11.9609575 5.76680225,12.3514818 L8.15344548,14.738125 L8.15344548,14.738125 L4.16557656,18.7208813 C3.94500793,18.9411672 3.94477869,19.2985503 4.16506454,19.519119 C4.16514982,19.5192043 4.16523513,19.5192897 4.16532047,19.519375 C4.38574775,19.7398023 4.743131,19.7398023 4.96355829,19.519375 C4.96364362,19.5192897 4.96372893,19.5192043 4.96381421,19.519119 L8.94657048,15.53125 L8.94657048,15.53125 L11.3332137,17.9178933 C11.723738,18.3084176 12.356903,18.3084176 12.7474273,17.9178933 L13.8909455,16.774375 L13.8909455,16.774375 C14.5489656,16.1155356 14.5489656,15.0482145 13.8909455,14.389375 L13.1146955,13.613125 L16.0790705,10.64875 C16.3879526,10.9267133 16.7885336,11.080937 17.2040705,11.081875 C17.6514725,11.0814812 18.0804065,10.9034331 18.3965705,10.586875 L19.6903205,9.29875002 L14.3859455,4 Z M13.0978205,15.1825 C13.2043089,15.2881187 13.2642071,15.4318914 13.2642071,15.581875 C13.2642071,15.7318587 13.2043089,15.8756313 13.0978205,15.98125 L12.0403205,17.03875 L6.64594547,11.644375 L7.70344548,10.586875 C7.80906419,10.4803867 7.95283686,10.4204885 8.10282048,10.4204885 C8.25280409,10.4204885 8.39657677,10.4803867 8.50219548,10.586875 L9.27844548,11.363125 L12.3215705,14.40625 L13.0978205,15.1825 Z M10.8478205,11.363125 L13.8065705,8.40437501 L15.2634455,9.86125002 L12.3215705,12.82 L10.8478205,11.363125 Z M17.5978205,9.79375002 C17.4922018,9.90023838 17.3484291,9.96013658 17.1984455,9.96013658 C17.0484619,9.96013658 16.9046892,9.90023838 16.7990705,9.79375002 L13.8909455,6.88562501 L13.8909455,6.88562501 C13.7870269,6.7808534 13.7284418,6.63944119 13.7278111,6.49187501 C13.7269561,6.34236083 13.7856531,6.19865435 13.8909455,6.09250001 L14.3859455,5.5975 L18.0928205,9.30437502 L17.5978205,9.79375002 Z" id="Style" fill="#65676B"></path>
    </g>
</svg>