<?xml version="1.0" encoding="UTF-8"?>
<svg width="24px" height="24px" viewBox="0 0 24 24" version="1.1" xmlns="http://www.w3.org/2000/svg" xmlns:xlink="http://www.w3.org/1999/xlink">
    <title>playlist</title>
    <g id="playlist" stroke="none" stroke-width="1" fill="none" fill-rule="evenodd">
        <path d="M18,17 C18.5522847,17 19,17.4477153 19,18 C19,18.5522847 18.5522847,19 18,19 L4,19 C3.44771525,19 3,18.5522847 3,18 C3,17.4477153 3.44771525,17 4,17 L18,17 Z M16.4814867,9.05264137 L20.8564867,12.0052834 C21.0478378,12.1344243 21.0478378,12.4280757 20.8564867,12.5572166 L16.4814867,15.5098586 C16.2735144,15.650217 16,15.4934509 16,15.2338921 L16,9.32860792 C16,9.0690491 16.2735144,8.91228297 16.4814867,9.05264137 Z M12,11 C12.5522847,11 13,11.4477153 13,12 C13,12.5522847 12.5522847,13 12,13 L4,13 C3.44771525,13 3,12.5522847 3,12 C3,11.4477153 3.44771525,11 4,11 L12,11 Z M18,5 C18.5522847,5 19,5.44771525 19,6 C19,6.55228475 18.5522847,7 18,7 L4,7 C3.44771525,7 3,6.55228475 3,6 C3,5.44771525 3.44771525,5 4,5 L18,5 Z" id="Combined-Shape" fill="#65676B"></path>
    </g>
</svg>