<?xml version="1.0" encoding="UTF-8"?>
<svg width="24px" height="24px" viewBox="0 0 24 24" version="1.1" xmlns="http://www.w3.org/2000/svg" xmlns:xlink="http://www.w3.org/1999/xlink">
    <title>report</title>
    <g id="report" stroke="none" stroke-width="1" fill="none" fill-rule="evenodd">
        <path d="M12.779375,6.125 C12.6304436,6.12292804 12.487794,6.06466272 12.38,5.961875 L11.913125,5.495 C11.596961,5.1784419 11.1680271,5.00039387 10.720625,5 L5,5 L5,19.0625 C5,19.3731602 5.25183983,19.625 5.5625,19.625 C5.87316017,19.625 6.125,19.3731602 6.125,19.0625 L6.125,12.875 L6.125,12.875 L10.720625,12.875 C10.8695564,12.877072 11.012206,12.9353373 11.12,13.038125 L11.586875,13.505 C11.9030391,13.8215581 12.331973,13.9996062 12.779375,14 L16.5,14 C17.6045695,14 18.5,13.1045695 18.5,12 L18.5,8.125 C18.5,7.0204305 17.6045695,6.125 16.5,6.125 L12.779375,6.125 L12.779375,6.125 Z M16.375,12.875 L12.779375,12.875 L12.779375,12.875 C12.6304436,12.8729281 12.487794,12.8146627 12.38,12.711875 L11.913125,12.245 C11.596961,11.9284419 11.1680271,11.7503939 10.720625,11.75 L6.125,11.75 L6.125,6.125 L10.720625,6.125 C10.8695564,6.12707197 11.012206,6.18533728 11.12,6.288125 L11.586875,6.75500001 C11.9030391,7.0715581 12.331973,7.24960614 12.779375,7.25000001 L16.375,7.25000001 C16.9272848,7.25000001 17.375,7.69771526 17.375,8.25000001 L17.375,11.875 C17.375,12.4272848 16.9272848,12.875 16.375,12.875 Z" id="Style" fill="#65676B"></path>
    </g>
</svg>