<?xml version="1.0" encoding="UTF-8"?>
<svg width="24px" height="24px" viewBox="0 0 24 24" version="1.1" xmlns="http://www.w3.org/2000/svg" xmlns:xlink="http://www.w3.org/1999/xlink">
    <title>settings</title>
    <g id="settings" stroke="none" stroke-width="1" fill="none" fill-rule="evenodd">
        <path d="M12.58125,3.24999997 C13.5611828,3.24999997 14.358471,4.03887111 14.36875,5.01874998 L14.36875,5.01874998 L14.36875,6.04999998 C14.9571677,6.28285725 15.507102,6.6031255 16,6.99999998 L16,6.99999998 L16.8625,6.49999998 C17.7112572,6.0073087 18.7982545,6.28531315 19.30625,7.12499998 L19.30625,7.12499998 L19.8875,8.13124999 C20.1250016,8.54222885 20.1892863,9.03079635 20.0661793,9.48922332 C19.9430723,9.94765029 19.642684,10.3382877 19.23125,10.575 L19.23125,10.575 L18.36875,11.06875 C18.467426,11.6898552 18.467426,12.3226448 18.36875,12.94375 L18.36875,12.94375 L19.23125,13.4375 C20.0822278,13.9349823 20.3747795,15.0243891 19.8875,15.88125 L19.8875,15.88125 L19.30625,16.8875 C19.0695377,17.298934 18.6789003,17.5993223 18.2204733,17.7224293 C17.7620464,17.8455363 17.2734789,17.7812516 16.8625,17.54375 L16.8625,17.54375 L16,17.04375 C15.507102,17.4406245 14.9571677,17.7608927 14.36875,17.99375 L14.36875,17.99375 L14.36875,18.9625 C14.36875,19.949709 13.568459,20.75 12.58125,20.75 L12.58125,20.75 L11.41875,20.75 C10.4339766,20.75 9.63469326,19.9535174 9.63124999,18.96875 L9.63124999,18.96875 L9.63124999,17.98125 C9.04283233,17.7483927 8.49289804,17.4281245 7.99999999,17.03125 L7.99999999,17.03125 L7.13749998,17.53125 C6.28063908,18.0185295 5.19123232,17.7259778 4.69374998,16.875 L4.69374998,16.875 L4.11249998,15.86875 C3.61255824,15.0210109 3.89194175,13.9286214 4.73749998,13.425 L4.73749998,13.425 L5.59999998,12.93125 C5.50132402,12.3101448 5.50132402,11.6773552 5.59999998,11.05625 L5.59999998,11.05625 L4.73749998,10.5625 C3.89781314,10.0545045 3.6198087,8.96750714 4.11249998,8.11874999 L4.11249998,8.11874999 L4.69374998,7.08124998 C5.19737141,6.23569175 6.28976091,5.95630825 7.13749998,6.45624998 L7.13749998,6.45624998 L7.99999999,6.95624998 C8.49289804,6.5593755 9.04283233,6.23910725 9.63124999,6.00624998 L9.63124999,6.00624998 L9.63124999,5.03749998 C9.63124999,4.05029098 10.431541,3.24999997 11.41875,3.24999997 L11.41875,3.24999997 Z M12.58125,4.49999996 L11.41875,4.49999996 C11.2740037,4.49999996 11.1353595,4.5583028 11.0341915,4.6618235 C10.9330235,4.7653442 10.8778838,4.90529282 10.88125,5.04999998 L10.88125,5.04999998 L10.88125,6.92499998 L10.44375,7.06249998 C9.7181273,7.29391902 9.05236426,7.68228079 8.49374999,8.19999999 L8.49374999,8.19999999 L8.15624999,8.50624999 L6.51249998,7.55624999 C6.25523575,7.41039769 5.92847417,7.49976838 5.78124998,7.75624999 L5.78124998,7.75624999 L5.19999998,8.76249999 C5.12743634,8.88588324 5.10708395,9.03311372 5.14345424,9.17155544 C5.17982452,9.30999716 5.26991294,9.42821353 5.39374998,9.49999996 L5.39374998,9.49999996 L7.03124998,10.40625 L6.93749998,10.85625 C6.85128046,11.2250683 6.80724803,11.6024892 6.80624998,11.98125 C6.80801761,12.3596151 6.84991873,12.7367253 6.93124998,13.10625 L6.93124998,13.10625 L7.03124998,13.55625 L5.39374998,14.5 C5.26467658,14.5717248 5.17079525,14.6933914 5.13414783,14.8364346 C5.0975004,14.9794778 5.12131487,15.1312979 5.19999998,15.25625 L5.19999998,15.25625 L5.78124998,16.2625 C5.8512173,16.3864419 5.96850782,16.4766654 6.10624998,16.5125 C6.24301012,16.5493834 6.38876481,16.5314444 6.51249998,16.4625 L6.51249998,16.4625 L8.15624999,15.5125 L8.49374999,15.81875 C9.05236426,16.3364692 9.7181273,16.724831 10.44375,16.95625 L10.44375,16.95625 L10.88125,17.09375 L10.88125,18.96875 C10.88125,19.2656031 11.1218969,19.50625 11.41875,19.50625 L11.41875,19.50625 L12.6125,19.50625 C12.9093531,19.50625 13.15,19.2656031 13.15,18.96875 L13.15,18.96875 L13.15,17.09375 L13.5875,16.95625 C14.3131227,16.724831 14.9788857,16.3364692 15.5375,15.81875 L15.5375,15.81875 L15.875,15.5125 L17.51875,16.4625 C17.7760143,16.6083523 18.1027758,16.5189816 18.25,16.2625 L18.25,16.2625 L18.8,15.25625 C18.8786851,15.1312979 18.9024996,14.9794778 18.8658522,14.8364346 C18.8292047,14.6933914 18.7353234,14.5717248 18.60625,14.5 L18.60625,14.5 L17,13.575 L17.09375,13.125 C17.1799695,12.7561817 17.224002,12.3787608 17.225,12 C17.2232324,11.6216349 17.1813313,11.2445247 17.1,10.875 L17.1,10.875 L17,10.425 L18.60625,9.49999996 C18.7335534,9.42823016 18.8261452,9.30771841 18.8626982,9.16622306 C18.8992511,9.0247277 18.8766137,8.87444838 18.8,8.74999999 L18.8,8.74999999 L18.21875,7.74374999 C18.1487827,7.61980808 18.0314922,7.5295846 17.89375,7.49374999 C17.7569899,7.45686656 17.6112352,7.47480559 17.4875,7.54374999 L17.4875,7.54374999 L15.84375,8.49374999 L15.50625,8.18749999 C14.9476357,7.66978079 14.2818727,7.28141902 13.55625,7.04999998 L13.55625,7.04999998 L13.11875,6.91249998 L13.11875,5.03749998 C13.11875,4.74064692 12.8781031,4.49999996 12.58125,4.49999996 L12.58125,4.49999996 Z M12,9.49999999 C13.3807119,9.49999999 14.5,10.6192881 14.5,12 C14.5,13.3807119 13.3807119,14.5 12,14.5 C10.6192881,14.5 9.49999999,13.3807119 9.49999999,12 C9.49999999,10.6192881 10.6192881,9.49999999 12,9.49999999 Z M12,10.75 C11.3096441,10.75 10.75,11.3096441 10.75,12 C10.75,12.6903559 11.3096441,13.25 12,13.25 C12.6903559,13.25 13.25,12.6903559 13.25,12 C13.25,11.3096441 12.6903559,10.75 12,10.75 Z" id="Style" fill="#65676B"></path>
    </g>
</svg>