<?xml version="1.0" encoding="UTF-8"?>
<svg width="24px" height="24px" viewBox="0 0 24 24" version="1.1" xmlns="http://www.w3.org/2000/svg" xmlns:xlink="http://www.w3.org/1999/xlink">
    <title>subscriptions-red</title>
    <defs>
        <linearGradient x1="50%" y1="0%" x2="50%" y2="100%" id="linearGradient-1">
            <stop stop-color="#FF7474" offset="0%"></stop>
            <stop stop-color="#FF0000" offset="100%"></stop>
        </linearGradient>
    </defs>
    <g id="subscriptions-red" stroke="none" stroke-width="1" fill="none" fill-rule="evenodd">
        <path d="M15.4,19.8 C15.7313708,19.8 16,20.0686292 16,20.4 C16,20.7313708 15.7313708,21 15.4,21 L8.6,21 C8.26862915,21 8,20.7313708 8,20.4 C8,20.0686292 8.26862915,19.8 8.6,19.8 L15.4,19.8 Z M18.4,17.8 C18.7313708,17.8 19,18.0686292 19,18.4 C19,18.7313708 18.7313708,19 18.4,19 L5.6,19 C5.26862915,19 5,18.7313708 5,18.4 C5,18.0686292 5.26862915,17.8 5.6,17.8 L18.4,17.8 Z M20,4 C21.1045695,4 22,4.8954305 22,6 L22,15 C22,16.1045695 21.1045695,17 20,17 L4,17 C2.8954305,17 2,16.1045695 2,15 L2,6 C2,4.8954305 2.8954305,4 4,4 L20,4 Z M20,5.6 L4,5.6 C3.80670034,5.6 3.64542508,5.7371128 3.60812658,5.91938605 L3.6,6 L3.6,15 C3.6,15.1932997 3.7371128,15.3545749 3.91938605,15.3918734 L4,15.4 L20,15.4 C20.1932997,15.4 20.3545749,15.2628872 20.3918734,15.080614 L20.4,15 L20.4,6 C20.4,5.80670034 20.2628872,5.64542508 20.080614,5.60812658 L20,5.6 Z M10.4814867,7.05264137 L14.8564867,10.0052834 C15.0478378,10.1344243 15.0478378,10.4280757 14.8564867,10.5572166 L10.4814867,13.5098586 C10.2735144,13.650217 10,13.4934509 10,13.2338921 L10,7.32860792 C10,7.0690491 10.2735144,6.91228297 10.4814867,7.05264137 Z" id="Combined-Shape" fill="url(#linearGradient-1)" fill-rule="nonzero"></path>
    </g>
</svg>