<?xml version="1.0" encoding="UTF-8"?>
<svg width="24px" height="24px" viewBox="0 0 24 24" version="1.1" xmlns="http://www.w3.org/2000/svg" xmlns:xlink="http://www.w3.org/1999/xlink">
    <title>trending-small</title>
    <defs>
        <path d="M15.5712776,7.00065315 L15.6609669,7.00112583 L19.3389955,7.00112583 C19.3579587,7.00112583 19.3767355,7.00193115 19.3952941,7.00350974 C19.5446811,6.98632112 19.6912765,7.02676624 19.8061504,7.15107952 C19.947267,7.30379196 20.0113371,7.46306006 19.9983609,7.62172534 L20,7.66767473 L20,11.3336937 C20,11.7018185 19.9918099,12.0002426 19.626768,12.0002426 C19.2617261,12.0002426 18.9658011,11.7018185 18.9658011,11.3336937 L18.9658011,11.3336937 L18.965,8.922 L13.5186324,14.8163632 C13.2860128,15.0680976 12.9233151,15.093271 12.66468,14.8918835 L12.5826436,14.8163632 L9.74141795,11.741668 L5.17398968,16.6925054 C4.88589668,16.9632111 4.38277387,17.137775 4.12430771,16.8580702 C3.86584155,16.5783653 4.05112739,16.1704118 4.30959355,15.8907069 L4.30959355,15.8907069 L9.27342357,10.5189883 C9.53188973,10.2392835 9.95094618,10.2392835 10.2094123,10.5189883 L10.2094123,10.5189883 L13.050638,13.5936836 L18.219,8 L15.6609669,8.00094918 C15.3291106,8.00094918 15.0543757,7.75431768 15.0071666,7.43289799 L15,7.33440028 C15,6.96627548 15.2959249,7.00112583 15.6609669,7.00112583 Z" id="path-1"></path>
    </defs>
    <g id="trending-small" stroke="none" stroke-width="1" fill="none" fill-rule="evenodd">
        <mask id="mask-2" fill="white">
            <use xlink:href="#path-1"></use>
        </mask>
        <use id="Combined-Shape-Copy" fill="#65676B" xlink:href="#path-1"></use>
    </g>
</svg>