<?xml version="1.0" encoding="UTF-8"?>
<svg width="24px" height="24px" viewBox="0 0 24 24" version="1.1" xmlns="http://www.w3.org/2000/svg" xmlns:xlink="http://www.w3.org/1999/xlink">
    <title>trending</title>
    <defs>
        <path d="M16.6936679,5.00055665 L16.7931602,5.00105989 L21.2067946,5.00105989 C21.6448449,5.00105989 22,5.35916882 22,5.80091857 L22,5.80091857 L22,10.2001413 C22,10.6418911 21.9901719,11 21.5521216,11 C21.1140713,11 20.7589613,10.6418911 20.7589613,10.2001413 L20.7589613,10.2001413 L20.758,7.328 L13.3033759,16.1609568 C13.0220247,16.4942718 12.5804318,16.522048 12.2723736,16.2442856 L12.1918893,16.1609568 L8.81793382,12.163853 L3.39411274,18.5999416 C3.05200231,18.951859 2.45454397,19.1787922 2.14761541,18.8151759 C1.84068684,18.4515595 2.06071377,17.92122 2.36764234,17.5576036 L2.36764234,17.5576036 L8.26219049,10.5743695 C8.56911906,10.2107531 9.06674858,10.2107531 9.37367715,10.5743695 L9.37367715,10.5743695 L12.7476326,14.5714733 L19.6583169,6.384429 C19.7162174,6.31583471 19.7809042,6.25347791 19.8498171,6.19988737 L16.7931602,6.20084791 C16.3551099,6.20084791 16,5.84273898 16,5.40098923 C16,4.95923948 16.3551099,5.00105989 16.7931602,5.00105989 Z" id="path-1"></path>
    </defs>
    <g id="trending" stroke="none" stroke-width="1" fill="none" fill-rule="evenodd">
        <mask id="mask-2" fill="white">
            <use xlink:href="#path-1"></use>
        </mask>
        <use id="Combined-Shape-Copy" fill="#65676B" xlink:href="#path-1"></use>
    </g>
</svg>