<?xml version="1.0" encoding="UTF-8"?>
<svg width="24px" height="24px" viewBox="0 0 24 24" version="1.1" xmlns="http://www.w3.org/2000/svg" xmlns:xlink="http://www.w3.org/1999/xlink">
    <title>upload</title>
    <g id="upload" stroke="none" stroke-width="1" fill="none" fill-rule="evenodd">
        <path d="M19.380036,2.18246394 C20.5191233,2.18246394 21.4425361,3.10587665 21.4425361,4.24496395 L21.4425361,4.24496395 L21.4425361,19.369964 C21.4425361,20.5090513 20.5191233,21.432464 19.380036,21.432464 L19.380036,21.432464 L15.023205,21.432464 C14.6435092,21.432464 14.335705,21.1246598 14.335705,20.744964 C14.335705,20.3652682 14.6435092,20.057464 15.023205,20.057464 L15.023205,20.057464 L19.380036,20.057464 C19.7597318,20.057464 20.067536,19.7496598 20.067536,19.369964 L20.067536,19.369964 L20.067536,4.24496395 C20.067536,3.86526818 19.7597318,3.55746395 19.380036,3.55746395 L19.380036,3.55746395 L15.023205,3.55746395 C14.6435092,3.55746395 14.335705,3.24965971 14.335705,2.86996394 C14.335705,2.49026818 14.6435092,2.18246394 15.023205,2.18246394 L15.023205,2.18246394 Z M5.91005421,7.86132119 C6.1824712,7.59454042 6.61957734,7.59910948 6.88635811,7.87152646 C7.1567635,8.14764464 7.15445163,8.58999545 6.88117491,8.86327216 L6.88117491,8.86327216 L4.62448311,11.119964 L13.9607331,11.119964 C14.3404289,11.119964 14.6482331,11.4277682 14.6482331,11.807464 C14.6482331,12.1871597 14.3404289,12.494964 13.9607331,12.494964 L13.9607331,12.494964 L4.62448311,12.494964 L6.89318401,14.7636649 C6.89544326,14.7659241 6.89768634,14.7681995 6.89991309,14.7704908 C7.15818718,15.0362511 7.15211841,15.4610649 6.88635811,15.719339 C6.61565355,15.9824181 6.18385306,15.9793339 5.916934,15.7124149 L5.916934,15.7124149 L2.9607331,12.756214 C2.70253967,12.4983076 2.55746395,12.1483392 2.55746395,11.7834015 C2.55746395,11.4184638 2.70253967,11.0684953 2.9607331,10.810589 L2.9607331,10.810589 L5.90492491,7.86639716 C5.90662582,7.86469625 5.90833561,7.86300423 5.91005421,7.86132119 Z" id="Style" fill="#65676B" transform="translate(12.000000, 11.807464) rotate(-270.000000) translate(-12.000000, -11.807464) "></path>
    </g>
</svg>