<?xml version="1.0" encoding="UTF-8"?>
<svg width="24px" height="24px" viewBox="0 0 24 24" version="1.1" xmlns="http://www.w3.org/2000/svg" xmlns:xlink="http://www.w3.org/1999/xlink">
    <title>upload-red</title>
    <defs>
        <linearGradient x1="-1.11022302e-14%" y1="50%" x2="100%" y2="50%" id="linearGradient-1">
            <stop stop-color="#FF7474" offset="0%"></stop>
            <stop stop-color="#FF0000" offset="100%"></stop>
        </linearGradient>
    </defs>
    <g id="upload-red" stroke="none" stroke-width="1" fill="none" fill-rule="evenodd">
        <path d="M19.380036,2 C20.5191233,2 21.4425361,2.92341271 21.4425361,4.06250001 L21.4425361,4.06250001 L21.4425361,19.1875001 C21.4425361,20.3265874 20.5191233,21.2500001 19.380036,21.2500001 L19.380036,21.2500001 L15.023205,21.2500001 C14.6435092,21.2500001 14.335705,20.9421958 14.335705,20.5625001 C14.335705,20.1828043 14.6435092,19.8750001 15.023205,19.8750001 L15.023205,19.8750001 L19.380036,19.8750001 C19.7597318,19.8750001 20.067536,19.5671958 20.067536,19.1875001 L20.067536,19.1875001 L20.067536,4.06250001 C20.067536,3.68280424 19.7597318,3.375 19.380036,3.375 L19.380036,3.375 L15.023205,3.375 C14.6435092,3.375 14.335705,3.06719577 14.335705,2.6875 C14.335705,2.30780424 14.6435092,2 15.023205,2 L15.023205,2 Z M5.91005421,7.67885725 C6.1824712,7.41207648 6.61957734,7.41664553 6.88635811,7.68906252 C7.1567635,7.9651807 7.15445163,8.40753151 6.88117491,8.68080822 L6.88117491,8.68080822 L4.62448311,10.9375 L13.9607331,10.9375 C14.3404289,10.9375 14.6482331,11.2453043 14.6482331,11.625 C14.6482331,12.0046958 14.3404289,12.3125 13.9607331,12.3125 L13.9607331,12.3125 L4.62448311,12.3125 L6.89318401,14.5812009 C6.89544326,14.5834602 6.89768634,14.5857355 6.89991309,14.5880268 C7.15818718,14.8537871 7.15211841,15.2786009 6.88635811,15.536875 C6.61565355,15.7999541 6.18385306,15.79687 5.916934,15.5299509 L5.916934,15.5299509 L2.9607331,12.57375 C2.70253967,12.3158437 2.55746395,11.9658752 2.55746395,11.6009375 C2.55746395,11.2359998 2.70253967,10.8860314 2.9607331,10.628125 L2.9607331,10.628125 L5.90492491,7.68393322 C5.90662582,7.6822323 5.90833561,7.68054029 5.91005421,7.67885725 Z" id="Style-Copy" fill="url(#linearGradient-1)" fill-rule="nonzero" transform="translate(12.000000, 11.625000) rotate(-270.000000) translate(-12.000000, -11.625000) "></path>
    </g>
</svg>