<?xml version="1.0" encoding="UTF-8"?>
<svg width="24px" height="24px" viewBox="0 0 24 24" version="1.1" xmlns="http://www.w3.org/2000/svg" xmlns:xlink="http://www.w3.org/1999/xlink">
    <title>watch-later</title>
    <g id="watch-later" stroke="none" stroke-width="1" fill="none" fill-rule="evenodd">
        <path d="M12,3 C16.9705627,3 21,7.02943725 21,12 C21,16.9705627 16.9705627,21 12,21 C7.02943725,21 3,16.9705627 3,12 C3,7.02943725 7.02943725,3 12,3 Z M12.5,7.1877961 C12.0581722,7.1877961 11.7,7.5459683 11.7,7.9877961 L11.7,7.9877961 L11.6989462,11.2315785 C11.2788999,11.4974094 11,11.9661344 11,12.5 L11,12.5 L11.0035724,12.5837961 L6.89570601,14.9571797 C6.51307191,15.1780936 6.38197179,15.6673659 6.60288569,16.05 C6.82379959,16.4326341 7.31307191,16.5637342 7.69570601,16.3428203 L7.69570601,16.3428203 L11.9408182,13.8923041 C12.1136229,13.9617712 12.302347,14 12.5,14 C13.3284271,14 14,13.3284271 14,12.5 C14,11.9656993 13.7206453,11.4966454 13.3000265,11.2309289 L13.3000265,11.2309289 L13.3,7.9877961 C13.3,7.5459683 12.9418278,7.1877961 12.5,7.1877961 Z" id="Combined-Shape" fill="#65676B"></path>
    </g>
</svg>