<?xml version="1.0" encoding="UTF-8"?>
<svg width="24px" height="24px" viewBox="0 0 24 24" version="1.1" xmlns="http://www.w3.org/2000/svg" xmlns:xlink="http://www.w3.org/1999/xlink">
    <title>your-videos</title>
    <g id="your-videos" stroke="none" stroke-width="1" fill="none" fill-rule="evenodd">
        <path d="M19.2,5 C20.1941125,5 21,6.03318904 21,7.30769231 L21,17.6923077 C21,18.966811 20.1941125,20 19.2,20 L4.8,20 C3.80588745,20 3,18.966811 3,17.6923077 L3,7.30769231 C3,6.03318904 3.80588745,5 4.8,5 L19.2,5 Z M18.852381,6.6 L4.94761905,6.6 C4.77963244,6.6 4.63947656,6.74830568 4.60706238,6.94545838 L4.6,7.03265306 L4.6,16.7673469 C4.6,16.9764262 4.71915755,17.1508667 4.87756168,17.19121 L4.94761905,17.2 L18.852381,17.2 C19.0203676,17.2 19.1605234,17.0516943 19.1929376,16.8545416 L19.2,16.7673469 L19.2,7.03265306 C19.2,6.82357383 19.0808425,6.64913325 18.9224383,6.60878997 L18.852381,6.6 Z M10.4814867,9.05264137 L14.8564867,12.0052834 C15.0478378,12.1344243 15.0478378,12.4280757 14.8564867,12.5572166 L10.4814867,15.5098586 C10.2735144,15.650217 10,15.4934509 10,15.2338921 L10,9.32860792 C10,9.0690491 10.2735144,8.91228297 10.4814867,9.05264137 Z" id="Combined-Shape" fill="#65676B"></path>
    </g>
</svg>